<!--?xml version="1.0" standalone="no"?-->
              <svg id="sw-js-blob-svg" viewBox="0 0 100 100" xmlns="http://www.w3.org/2000/svg" version="1.1">
                    <defs> 
                        <linearGradient id="sw-gradient" x1="0" x2="1" y1="1" y2="0">
                            <stop id="stop1" stop-color="rgba(248, 117, 55, 1)" offset="0%"></stop>
                            <stop id="stop2" stop-color="rgba(251, 168, 31, 1)" offset="100%"></stop>
                        </linearGradient>
                    </defs>
                <path fill="url(#sw-gradient)" d="M25.5,-31.7C30.5,-26.2,30.2,-15.7,30.8,-6.3C31.4,3.1,32.8,11.4,29.9,18C27,24.6,19.8,29.5,12.1,31.5C4.5,33.5,-3.5,32.7,-12.1,30.6C-20.6,28.6,-29.6,25.5,-32.8,19.2C-36,13,-33.4,3.8,-30.8,-4.5C-28.2,-12.7,-25.5,-20,-20.4,-25.4C-15.2,-30.8,-7.6,-34.4,1.3,-36C10.3,-37.5,20.5,-37.1,25.5,-31.7Z" width="100%" height="100%" transform="translate(50 50)" style="transition: all 0.3s ease 0s;" stroke-width="0"></path>
              </svg>